<svg id="Graphic_Elements" data-name="Graphic Elements" xmlns="http://www.w3.org/2000/svg" viewBox="0 0 1200 1200"><defs><style>.cls-1{fill:#fff;}.cls-1,.cls-2{fill-rule:evenodd;}</style></defs><path class="cls-1" d="M878.08,139c23.45-.06,35.86,10.93,53.56,16.62,10.37,10.29,20.57,24.07,22.17,44.33,2.55,32.46-10.78,60.62-24,79.43-3.19,4.52-4.87,9.85-7.39,12.93-41.06,49.93-114.27,65.32-179.17,70.19,46.27-19,101.64-48,133-94.21,11.27-16.62,29.15-48.44,24-83.11-2.82-19.15-15.13-28-22.16-46.19Z"/><path class="cls-1" d="M702.6,233.17C666.5,250.1,624.07,252,589.93,266.42c-21.41,9-44.3,21.26-62.8,35.09-17.51,13.09-32.91,35.47-42.48,61-5.08,13.52-7.52,26-9.24,46.17-68.8,9.39-151.59,4.8-188.4,46.18-2.88,31.2,9.48,47.17,22.16,62.8,12.52,35,21.7,71,33.25,105.28,11.61,34.51,27.88,66.19,38.79,99.75-44.83,3.61-107.25,9.43-151.46,27.7-23.26,9.62-42.47,19.83-42.48,44.33-61.58-173.2,5.8-349.35,99.74-443.3a431.35,431.35,0,0,1,127.45-88.66c2.13-1,6-2.23,9.23-3.69,7.69-3.48,21.14-11.09,33.25-14.78,54.18-16.49,127.49-34.05,203.18-22.16,13.93,2.18,25.88,8.75,42.48,11.07ZM471.72,251.65c-40.67,12.72-74.07,29.65-105.29,49.87-12.23,7.92-24.28,18.54-33.24,25.86-3.7,3-9.37,4.35-12.93,7.38-12,10.18-22.36,23.86-33.25,35.1-11.76,12.14-26.08,23.69-29.55,40.64,77.16,5.13,135.28-8.79,201.33-14.78,6.8-38.14,23.56-66.33,42.48-92.36,27.33-21.33,57.21-44.3,92.36-57.26,8.74-3.22,22.66.08,24-14.77C559.93,228.67,514.09,238.38,471.72,251.65ZM244.53,419.73c-13,30.09-32.83,53.37-40.64,88.66,29.06-.74,56,.63,83.12,1.85-.74-14.95-14.46-18.46-16.63-31.4-4.27-25.58,17.48-41.89,31.41-55.41-21.06.73-34.59-6-57.26-3.7ZM198.35,523.17c-6.54,19.94-13.07,39.88-14.78,64.65,42,.47,86.36-1.4,125.6,1.84-4-23.73-6.56-48.85-16.62-66.49ZM178,606.29c1.18,18.42-3.19,31.28-1.85,49.87,50.21-3.68,110.21-2.1,160.7,0-5.67-18.35-14-34-20.32-51.72-54.4,1.83-97-.63-138.52,1.85Zm-1.85,68.34c.07,20,5.94,26.87,5.54,44.33,59.5-.84,123.85,3.17,175.48-5.54-.38-18.1-12.8-24.15-14.78-40.64-48.17,3.94-128.35-.74-166.23,1.85Zm12.93,77.58c11.37-2.8,27.93-.39,31.4-11.09H185.42C184,747.5,187.47,748.92,189.11,752.21Z"/><path class="cls-2" d="M617.64,231.32c-1.35,14.85-15.27,11.55-24,14.78-35.15,13-65,35.92-92.36,57.26-18.92,26-35.68,54.21-42.48,92.35-66.05,6-124.17,19.91-201.33,14.78,3.47-16.94,17.79-28.49,29.55-40.64,10.89-11.24,21.28-24.91,33.25-35.09,3.56-3,9.23-4.37,12.93-7.39,9-7.32,21-17.93,33.24-25.86,31.22-20.21,64.62-37.15,105.29-49.87,42.37-13.26,88.21-23,145.92-20.32Z"/><path class="cls-2" d="M944.57,410.5c-99-1.09-186,1.93-280.76-1.85,28.72-13.3,66-10.2,103.44-14.78,36.91-4.51,72-12.15,101.59-24,9.86-3.95,18.9-10.38,29.55-12.93,8.76-2.1,21.53,16.46,27.71,24C934.52,391.21,941.52,399.87,944.57,410.5Z"/><path class="cls-2" d="M301.79,423.43c-13.93,13.52-35.68,29.83-31.41,55.41,2.17,12.94,15.89,16.45,16.63,31.4-27.1-1.22-54.06-2.59-83.12-1.85,7.81-35.29,27.63-58.57,40.64-88.66C267.2,417.39,280.73,424.16,301.79,423.43Z"/><path class="cls-2" d="M724.77,419.73h229c17.06,26.65,33.33,54.09,44.33,86.81-52.28,3.6-129.62,1.85-193.95,1.85-21.3,0-42.13,2.06-53.56-12.93,7.78-22.11,5.64-30.5,0-51.72C743.89,433.86,728.44,432.68,724.77,419.73Z"/><path class="cls-2" d="M314.71,456.67h5.55c10.26,23.94,42.57,34.54,70.19,35.1-1.27,6.45-12.22,4-18.48,3.69-8-.34-18.94-2.22-25.85-3.69-4.51-1-12.1-2.48-14.78-3.7-8-3.61-14.38-14.55-18.47-24C312.65,460.74,315.14,460.16,314.71,456.67Z"/><path class="cls-2" d="M329.49,489.92c76.6,34.44,210,26.88,304.77,22.17C594.15,525.79,529.67,524.84,468,525c-21,.07-44.42-3.7-68.34-7.38-30.79-4.75-65.39-3.13-70.19-27.71Z"/><path class="cls-2" d="M1003.68,521.32c5,22.09,13.72,40.46,14.78,66.5-67.55-1.11-148.41,2.29-206.88-1.85-1.73-26.6-12.05-44.6-24-61-.34-1.57.72-1.74,1.85-1.84,1.49-.35,1.84-1.85,3.69-1.85,41.14.19,144.79,4.32,210.57,0Z"/><path class="cls-2" d="M292.56,523.17c10.05,17.64,12.65,42.76,16.62,66.49-39.24-3.24-83.6-1.37-125.6-1.84,1.71-24.77,8.24-44.71,14.77-64.65Z"/><path class="cls-2" d="M359,523.17c8.59-1.81,11.16,2.39,16.63,3.69,15.79,2.46,35.89,2.14,55.41,5.54,7.5,1.31,18.33,3.09,22.17,9.24-31.58-2.29-66.69-1-94.21-7.39Z"/><path class="cls-2" d="M360.89,543.49c14.42,2.58,30.51,7.71,48,9.23,10.11.88,25.84-4.63,31.4,7.39-30.82,0-54.25,4.67-79.43-5.54Z"/><path class="cls-2" d="M630.57,748.51c16.19-53.38,42.15-97,57.26-151.46,28.17-6.3,23.34-45.61,64.64-38.79,7.95,8.11,12.77,13.6,11.09,31.4-3.31,34.89-32.49,62.2-57.26,83.12-1.84,1.55-1.88,5.68-3.7,7.39-1.32,1.24-7.15,2-9.23,3.69C686,690,671,698.21,662,706,647.91,718.15,642.91,738.94,630.57,748.51Zm92.35-109c2.15-2.45,1.58-6.19,3.7-9.23,2.85-4.1,9-6.27,11.08-9.24,5.15-7.5,14.66-30.22,9.23-36.94-3.21.14-5.74-.41-7.38-1.85-29,17.81-55.44,48-57.26,86.82C691.59,662.11,710.66,653.52,722.92,639.53Z"/><path class="cls-2" d="M366.43,567.5c19.27,1.2,37.83,3.83,57.26,5.54,9,.79,21.86-1.58,25.86,7.39-27-2.52-64.82,5.72-83.12-5.54Z"/><path class="cls-1" d="M682.29,669.09c1.82-38.86,28.23-69,57.26-86.82,1.64,1.44,4.17,2,7.38,1.85,5.43,6.72-4.08,29.44-9.23,36.94-2,3-8.23,5.14-11.08,9.24-2.12,3-1.55,6.78-3.7,9.23C710.66,653.52,691.59,662.11,682.29,669.09Z"/><path class="cls-2" d="M370.13,587.82c30.06,7.86,60.55,4.23,85,11.08-2.33,6.89-12.67,3.55-18.47,3.69-18.36.45-42.78-.33-62.8,0A47.46,47.46,0,0,1,370.13,587.82Z"/><path class="cls-2" d="M316.56,604.44c6.33,17.69,14.65,33.37,20.32,51.72-50.49-2.1-110.49-3.68-160.7,0-1.34-18.59,3-31.45,1.85-49.87C219.53,603.81,262.16,606.27,316.56,604.44Z"/><path class="cls-2" d="M1024,604.44c-1.18,17.81,1.8,39.2,0,51.72-70.62-2.91-154.15-1.58-232.74-1.85C795.78,638.4,808.1,625,807.89,610c1.59-1.49,1.09-5.06,3.69-5.54Z"/><path class="cls-2" d="M377.52,611.83c29.78,3.87,53.65,2.64,79.42,9.23-1.41,6.83-11.46,3.53-16.62,3.7-17.15.56-40.48-.42-59.11,0C381.41,619,375.41,619.48,377.52,611.83Z"/><path class="cls-2" d="M384.9,634c24.69,4.67,44.13,3.54,68.35,7.39-4.08,8.58-19.74,5.48-31.4,5.54-12.51.07-24.9.49-33.25-1.84C390.57,638.17,384,639.81,384.9,634Z"/><path class="cls-2" d="M394.14,654.31c14.09,3.88,27.92,4.07,44.33,5.54,5.81.52,15.61,0,18.47,5.54-4.69,6.82-17.87,3.65-27.71,3.7-10.87.06-22.24-.05-31.4,0C398.33,662.44,394.44,660.18,394.14,654.31Z"/><path class="cls-2" d="M342.42,672.78c2,16.49,14.4,22.54,14.78,40.64-51.63,8.71-116,4.7-175.48,5.54.4-17.46-5.47-24.28-5.54-44.33C214.07,672,294.25,676.72,342.42,672.78Z"/><path class="cls-2" d="M1024,674.63c1.43,16.21-2.71,26.84-1.85,42.48-86.85,4.82-182.93-4.42-290,1.85,1.94-9.48,12.26-14.55,18.47-20.32a201.65,201.65,0,0,0,22.16-24C863.37,672.71,937.87,679.63,1024,674.63Z"/><path class="cls-2" d="M403.37,678.32c1.58-.34,1.75.72,1.85,1.85,8.21-1,17.76,2.93,27.71,3.69,13.06,1,29.31-4.64,35.09,5.55-16.45,3.7-42.85,5.78-60.95,1.84C406.77,686,403.69,683.55,403.37,678.32Z"/><path class="cls-2" d="M416.3,704.18c19.86,5.4,48.93,1.56,70.19,5.54-7.06,8.19-22.49,6.34-35.09,7.39-10.22.85-19.69,3.11-29.55,1.85C419.5,714.53,415.1,712.14,416.3,704.18Z"/><path class="cls-2" d="M423.69,728.19c19.95,4.06,48.85-.82,68.35,3.7-5.34,8.28-20.42,6.35-31.41,7.39-12.48,1.17-24.44,3.22-35.09,0C426.89,733.63,422.36,733.83,423.69,728.19Z"/><path class="cls-2" d="M1011.07,741.12c.94,7.72-1,12.52-3.7,16.63C976.25,745.16,927.08,750.61,891,743c6.55-3.28,15.51-5.33,24-5.54,6.3-.16,12,3.27,18.47,3.69C954.86,742.51,981,739.55,1011.07,741.12Z"/><path class="cls-2" d="M867,739.28c-7.41,7.89-22.89,8.84-35.09,12.93-15.58,5.21-26.88,13.93-48,11.08C765,760.74,752.68,744.14,734,743c.82-1.64,1.63-3.3,3.7-3.69C772.42,739.76,817.88,743.47,867,739.28Z"/><path class="cls-2" d="M185.42,741.12h35.1c-3.47,10.7-20,8.29-31.4,11.09C187.48,748.92,184,747.5,185.42,741.12Z"/><path class="cls-2" d="M429.23,748.51c15.6,2.26,40.47,3,61,5.54-10.35,11.15-47,11.94-61,3.7Z"/><path class="cls-1" d="M746.93,776.22c-14.78,7.29-33.55,17-53.56,22.16-14.2,3.67-35,1-40.64,16.63,8.45,3.86,23,1.62,27.71,9.23-5.74,8.73-20.66,6.27-31.4,9.24-8.27,2.28-26.79,6.25-40.64,7.39C624.19,830.18,637.68,817.2,638,791c21.74-1.43,38.19,2.44,59.1,1.84,1.52-18.75-23.2-11.27-36.94-14.77-1.77-5.63,7.69-13.92,9.24-22.17C697.91,760,724.47,766,746.93,776.22Z"/><path class="cls-1" d="M1016.61,783.61c-12.48,53.58-45.24,107.74-77.58,147.76-2.47,3.06-5,6.13-7.39,9.24A321.1,321.1,0,0,1,891,983.09c-9.57,8.29-18.85,13.32-29.56,22.17-5.54,4.58-10.67,12.91-20.32,14.77-9.86,1.91-22.68-3.62-36.94-5.54-14-1.88-25.2-.72-33.24-9.23,1.93-30.61,45.94-13.81,66.49-22.17-3.78-7-13.4-4.76-20.32-5.54-23.81-2.69-48.33-.58-81.27-3.69-11-1-24.69-1.29-35.09-3.7-17.77-4.11-31.61-20-46.18-29.55-25-2.65-50.74-3.42-72-7.39-12.8-2.38-27.78-5.69-33.25-18.47,9.53-13.11,42.31-7.09,61-9.23,22.82-2.63,45.54-11.29,66.49-16.63,19-4.85,34.78-7.39,51.72-12.93,13.27-4.34,26.47-8.91,40.64-14.77,7-2.9,14.09-4.75,20.32-7.39s12-8.48,18.47-11.09c6-2.42,13.67-1.68,20.32-3.69,2.76-.83,4.7-3,7.38-3.69,8.47-2.31,18.44-4.55,27.71-7.39,4.93-1.51,12-2.14,14.78-7.39-1.43-5.89-11.35-2.42-14.78-1.85-13.12,2.18-29.25,10.18-46.18,9.24-3.43-2.73-10.79-1.52-11.08-7.39-33,4.6-82.44,17.22-110.83,3.69,2.94-5.69,14-3.19,16.63-9.23,1.64-6.74-3.27-9.84,0-12.93,20.78-1.77,39.88-16.17,62.8-18.47,11.7-1.18,23.39,1.44,35.09,0,28.64-3.53,54.75-17.38,81.28-16.63,37.94,9.48,93.61,1.2,125.6,16.63ZM806,925.83c-18,0-38.4,1.7-48,3.7-22.14,4.6-48.62,5.6-68.35,9.23-6.63,1.22-17.3.45-20.31,7.39,61.76-4.33,118-4.76,171.77-14.78C833.41,922.12,817.47,925.83,806,925.83Z"/><path class="cls-2" d="M432.93,768.83c23.2,5.2,43.52.83,64.65,9.24-4.32,6.14-25.33,7.15-40.64,5.54-9.27-1-18.31-4.85-24-7.39Z"/><path class="cls-2" d="M429.23,789.15c39.43,14.12,83.27,13.49,127.45,14.78-9.28,10-28.29,6.47-44.33,7.38-27.82,1.58-58.77,3-79.42-7.38C432.37,798.33,427.22,797.31,429.23,789.15Z"/><path class="cls-1" d="M194.66,816.85c14.82,14.74,32.18,26.94,53.57,35.1-.74,7.88-15.48,1.76-22.17,3.69.85,10.24,9.73,12.44,11.08,22.17,23,.13,47.36-6.27,72,0,13.18,3.35,24.09,15.41,36.94,20.32,13.08,5,29,4.89,44.33,7.39,42,6.83,87.22,13.47,138.53,11.08,10.54,11.88,17.56,19.51,36.94,25.86,18.25,6,43.39,6.69,68.35,9.23,10.72,1.1,18.52,8.69,29.55,16.63,12,8.6,20.48,16.58,40.64,18.47,9.51.89,20.47.88,31.4-1.85,10.94,10.35,9.32,25.68,20.31,35.09,14.29,12.23,37.12,10.34,61,14.78-78.06,51.07-186.08,68.54-282.61,53.57-10.78-1.67-15.74-2.79-27.7-5.54-31.22-7.19-61.45-16.9-88.66-29.56-25.7-12-46.62-22.36-70.19-38.79C282.81,969.07,225,895.32,194.67,816.85ZM305.48,957.23c23.89,6.56,61.08-2.32,85-1.84,60.79,1.2,126.64,4.47,184.7,0-19.65.56-28.73-9.44-40.63-16.63-82,3.51-189.33.48-245.66,0C292.26,949.14,297.26,955,305.48,957.23ZM663.81,1033c-85.7,0-184.33.5-243.81-1.84-1.85,0-2.2,1.5-3.7,1.84a8.76,8.76,0,0,0,1.85,5.55c25.75,8.89,55.77,5.54,85,5.54,90.14,0,185.06,1.51,269.67-1.85C747.86,1028.48,706.33,1033,663.81,1033Z"/><path class="cls-2" d="M841.13,931.37c-53.8,10-110,10.45-171.77,14.78,3-6.94,13.68-6.17,20.31-7.39,19.73-3.63,46.21-4.63,68.35-9.23,9.62-2,30-3.7,48-3.7C817.47,925.83,833.41,922.12,841.13,931.37Z"/><path class="cls-2" d="M288.86,938.76c56.34.48,163.66,3.51,245.66,0,11.91,7.19,21,17.19,40.64,16.63-58.06,4.47-123.91,1.2-184.71,0-23.89-.48-61.08,8.4-85,1.84-8.21-2.25-13.22-8.09-16.61-18.47Z"/><path class="cls-2" d="M772.79,1042.2c-84.61,3.36-179.53,1.85-269.67,1.85-29.2,0-59.22,3.35-85-5.54a8.76,8.76,0,0,1-1.85-5.55c1.5-.35,1.85-1.85,3.7-1.84,59.48,2.34,158.11,1.84,243.81,1.84C706.33,1033,747.86,1028.48,772.79,1042.2Z"/><path class="cls-1" d="M844.83,218.39c-12.66,4.1-20.12,16.08-29.55,24-27.23,22.91-59,43.39-103.44,51.72-42.73,19.94-102.9,18.52-144.07,38.79-9.46,4.66-16,13.76-25.86,16.63-8.76,15.31-27.13,30.68-31.4,55.41-3,17.09-3.71,40.05,0,55.41,1.53,6.35,8.75,13,3.69,18.47-17.84-.05-27.06-27.78-29.55-44.33-3.74-24.81,8.83-47.24,12.93-64.65,4.81-20.43,22.39-37.75,36.94-51.71,8.79-8.44,20.18-10.81,35.09-18.48,17.19-8.83,30.66-17.23,53.57-24C669,262.11,726.56,250.4,767.25,229.48c23-11.83,37.67-30.35,55.41-46.18,9.32-17,23.89-43,18.47-79.43-2.1-14.17-10-27.81-18.47-35.09,5.35-1.6,13.78,3.77,18.47,7.39,6.4,4.93,25.49,27.68,27.71,36.94,8.5,35.43-9.84,67.67-16.62,94.2,12.65-9.52,17-27.3,20.32-46.18,21.12,22,5.79,80.85-11.09,107.13-8.29,12.93-22.35,26.7-35.09,38.79-19.5,18.51-52.84,34.35-81.27,46.18-36.8,15.31-80.35,18.67-116.37,33.25,19.24-24,53.85-31.68,83.12-48,5.07-2.83,13.11-8.85,20.32-12.93,17.53-9.91,34.59-19.9,51.72-31.4,24.88-16.71,52.34-40.78,61-75.73Z"/><path class="cls-1" d="M793.11,273.81c-18.2,24.39-69.05,49.56-105.28,66.5-22.1,10.32-45.47,23.54-66.5,35.09-21.55,14.77-38.18,34.47-57.26,51.72-1.07,11.24-10.16,25.64-1.85,35.09-4,3.85-7.58-8.33-11.08-11.08a75.16,75.16,0,0,1,3.7-33.25c12.67-35.95,46.42-60.24,83.12-75.73C689.1,320.56,750.15,303.75,793.11,273.81Z"/><path class="cls-1" d="M649,883.35c-13.47,16.31-50.68,13.87-83.12,16.62-49.29,4.18-102.52,3.93-153.31-3.69-28.55-4.28-57.47-11.77-81.27-22.17,8.62-4.49,19.9-.13,29.55,1.85,57.31,11.78,146.64,19,223.5,14.78C606.19,889.52,633.17,887.23,649,883.35Z"/><path class="cls-2" d="M879.92,126c13.72.07,26.52-1,44.33,1.85,20.43,13.35,36.25,22.35,46.18,48,15.05,38.92-5.94,97.5-29.55,123.75a504.1,504.1,0,0,1,96.05,127.45c13,24.45,21.9,52.49,31.4,81.28,12.39,37.57,19.16,71.4,22.16,116.36,9.82,147.1-48.61,272.58-121.91,360.18-34.2,40.89-81.3,75.94-127.45,101.59-59.57,33.13-128.43,58.4-214.26,62.81C422.12,1159.83,257,1046.27,178,909.2c-20.47-35.51-40.48-75.42-51.72-120.06-5.84-23.21-11.9-47.38-14.77-73.88C95.16,564.38,145.37,434.5,218.67,345.84c55-66.52,121.43-118.82,212.41-151.46,98.14-35.21,245.59-45.51,345.41,1.85,14.88-7.86,37.92-28.16,48-48,11-21.64,5.77-54.83-11.08-73.88-9.17-3-21.53-9-33.25-3.69,2.73-19.94,24.12-21.55,36.94-20.32,26.68,2.54,46.76,27.29,55.42,48,3.86,9.24,4.89,18.92,7.38,27.7Zm-96,168.09c-17.13,11.5-34.19,21.48-51.72,31.4-7.21,4.08-15.25,10.1-20.32,12.93-29.27,16.34-63.88,24-83.12,48,36-14.57,79.57-17.94,116.37-33.24,28.43-11.83,61.77-27.67,81.27-46.18,12.74-12.1,26.8-25.87,35.09-38.79,16.88-26.28,32.21-85.18,11.09-107.13-3.29,18.88-7.67,36.66-20.32,46.18,6.78-26.53,25.12-58.77,16.62-94.21-2.22-9.25-21.31-32-27.71-36.94-4.69-3.62-13.12-9-18.47-7.39,8.44,7.28,16.37,20.92,18.47,35.1,5.42,36.43-9.15,62.42-18.47,79.42-17.74,15.83-32.4,34.35-55.41,46.18C726.56,250.4,669,262.12,623.18,275.66c-22.91,6.77-36.38,15.17-53.57,24-14.91,7.67-26.3,10-35.09,18.47-14.55,14-32.13,31.28-36.94,51.72-4.1,17.41-16.67,39.84-12.93,64.65,2.49,16.54,11.71,44.28,29.55,44.33,5.06-5.47-2.16-12.12-3.69-18.47-3.71-15.36-3-38.32,0-55.42,4.27-24.72,22.64-40.09,31.4-55.41,9.81-2.87,16.4-12,25.86-16.62,41.17-20.27,101.34-18.86,144.07-38.79,44.48-8.34,76.21-28.81,103.44-51.72,9.43-7.94,16.89-19.91,29.55-24C836.22,253.35,808.76,277.41,783.88,294.13Zm116.36-109c5.14,34.67-12.74,66.49-24,83.11-31.35,46.22-86.72,75.18-133,94.21,64.9-4.87,138.11-20.26,179.17-70.19,2.52-3.08,4.2-8.41,7.39-12.93,13.23-18.81,26.56-47,24-79.43-1.6-20.26-11.8-34-22.17-44.33-17.7-5.69-30.11-16.68-53.56-16.62,7,18.16,19.34,27,22.16,46.17ZM660.12,222.09c-75.69-11.89-149,5.67-203.18,22.16-12.11,3.69-25.56,11.3-33.25,14.78-3.23,1.46-7.1,2.71-9.23,3.69A431.35,431.35,0,0,0,287,351.38c-93.94,93.94-161.32,270.1-99.74,443.3,0-24.5,19.22-34.71,42.48-44.33,44.21-18.27,106.63-24.09,151.46-27.7C370.3,689.09,354,657.41,342.42,622.9c-11.55-34.33-20.73-70.32-33.25-105.28-12.68-15.63-25-31.6-22.16-62.8,36.81-41.38,119.6-36.79,188.4-46.18,1.72-20.19,4.16-32.65,9.24-46.17,9.57-25.49,25-47.87,42.48-61,18.5-13.83,41.39-26.07,62.8-35.09C624.07,252,666.5,250.1,702.6,233.17c-16.6-2.33-28.55-8.9-42.48-11.09ZM638,342.15c-36.7,15.49-70.45,39.78-83.12,75.73a75.16,75.16,0,0,0-3.7,33.25c3.5,2.75,7.12,14.93,11.08,11.08-8.31-9.45.78-23.85,1.85-35.09,19.08-17.25,35.71-36.95,57.26-51.72,21-11.55,44.4-24.77,66.5-35.09,36.23-16.94,87.08-42.11,105.28-66.5C750.15,303.75,689.1,320.56,638,342.15Zm393.42,238.28a419.24,419.24,0,0,0-61-155.16c-1.53-2.35-.38-6.89-1.85-9.23-2.51-4-6.57-7.41-9.23-11.09-16.12-22.25-42.87-55.14-61-66.49-.1-1.13-.27-2.19-1.84-1.85-61.72,50.34-187.09,37-273.37,62.8-1.39,7.85-14.1,4.38-16.63,11.09,60,8.52,168.8,23,127.45,94.2,42.43,13.38,71.47,42.54,62.8,97.89-3.27,20.9-19.23,47.92-35.09,66.5C743,691,712.37,720,691.52,733.74c-3.75,2.46-7.94,2.81-9.23,7.38,10.67,7.19,30.74,5,36.94,16.63,1.61-2.7,1.46-7.15,7.39-5.54,10.18,7.69,22.92,6.41,35.09,11.08,7.73,3,13.11,10.07,22.17,11.08,7.6.85,20.26-1.91,27.7-3.69,17.58-4.22,33.66-12.65,51.72-14.78,25.69-3,58,2.49,88.66,3.7,29.69,1.16,44.42,2.8,68.34,11.08C1040.18,717,1041.25,637.15,1031.38,580.43ZM307.33,451.13c-2.51,7.34-9.64,10.07-11.09,18.47,5.68,15.26,16.64,25.24,25.86,36.94q24.34,63.45,46.18,129.3c18.23,55.07,43.4,100.53,44.33,168.09,7,13,16.16,18.67,31.4,24,43.57,15.25,125.16,12.52,162.54-5.54,7.06-13.27,11.8-28.84,14.78-46.18,26.06-4.72,34.92-26.65,46.18-46.18,30.09-18.69,62.89-45,83.12-72,9-12,15.66-19.77,22.16-33.25,17.54-36.35,8.37-75-22.16-99.75-16.67-4.59-29.77-3.72-38.79,7.39-5,16.59-5.12,38-16.63,48,2.54-25.25,12.67-46.85,11.09-66.5-1.31-7.31-14.4-2.84-14.78-11.08,9-6.92,27.08-9.39,33.25-18.47.26-.38,3.66-9.86,3.69-11.08.64-21.54-46.61-35.23-70.19-40.64-23-5.27-51.63-6.59-75.73-5.54-5.74,5.34-12.78,9.38-12.93,20.32,24.67,6.86,79.86,6.79,110.83,11.08C654.1,447.3,617.86,446,584.39,441.9c27.21-4.38,59.37,1.58,83.12,7.38,10.47,2.56,23.68,3.68,27.7,12.93-7.74,13.2-25.41,18.43-42.48,22.17-49.82,10.92-126,7.8-192.1,3.69-33.91-2.1-66.17-.62-92.35-7.39-14.88-3.84-38.17-12.1-27.71-27.7,9-.34,3.47,13.78,14.78,11.08,30.07-15.24,78.65-12.36,123.76-16.62.25-3.05-2-17-3.7-24C414.33,427.6,353.49,432,307.33,451.13ZM373.82,743c-16.68-4.72-52.75.16-75.73,3.7-14.5,2.23-29.38,7.28-42.48,11.08-11.76,3.4-31.08,9.55-38.79,14.77-25.52,17.28-14.19,42.67,9.23,51.72,7.06,2.73,9.81,4.55,16.63,7.39,11.87,5,21.1,7.71,36.94,12.93,16.66,5.5,35.44,11.63,48,14.78,9.71,2.42,21.13,1.64,31.4,3.69,9.86,2,19,6,27.71,7.39,28.77,4.63,60.79,5.7,90.51,7.39,5.16.29,9.59,3.33,14.78,3.69,25.38,1.8,49.44-2.3,73.88-3.69,9.67-.55,19.57.84,29.55,0,26.8-2.26,51.56-8.27,72-11.08,26-3.59,43.94-10.24,61-20.32-12.59-.46-33-5.47-44.33-12.93-50.6,16.58-107.53,20.34-164.39,22.16-65.78,2.11-127-7.74-186.55-16.62-35.45-12.58-82.21-13.84-107.14-36.94-1.45-14.39,2-23.84,11.09-27.71,1.6,8.25-7.46,11.94-3.7,16.63,18.87,21.32,58.23,28.29,92.36,35.09,19.65,3.91,38,8.74,55.41,5.54-9-3.92-26,.16-29.55-9.23,14.17-1.22,33.22,2.44,44.33-1.85-14.14-12.85-50.47-.67-64.65-9.24,13.71-5.38,30.76-7.41,48-9.23-16.52-18.49-57.26,1.37-79.42-5.54,20.76-10.64,50.23-12.57,79.42-14.78.15-6.61-8.31-6.85-11.08-7.39-27.6-5.38-65.83,11.75-90.51,7.39,28.16-14.94,67.62-18.58,110.83-18.47C389.13,752.41,382.61,745.45,373.82,743ZM669.36,755.9c-1.55,8.25-11,16.54-9.24,22.17,13.74,3.5,38.46-4,36.94,14.77-20.91.6-37.36-3.27-59.1-1.84-.28,26.2-13.77,39.18-29.56,49.87,13.85-1.14,32.37-5.11,40.64-7.39,10.74-3,25.66-.51,31.4-9.24-4.7-7.61-19.26-5.37-27.71-9.23,5.65-15.64,26.44-13,40.64-16.63,20-5.16,38.78-14.87,53.56-22.16C724.47,766,697.91,760,669.36,755.9ZM891,767c-26.53-.75-52.64,13.1-81.28,16.63-11.7,1.44-23.39-1.18-35.09,0-22.92,2.29-42,16.7-62.8,18.47-3.27,3.09,1.64,6.19,0,12.93-2.58,6-13.69,3.54-16.63,9.23,28.39,13.53,77.85.91,110.83-3.69.29,5.87,7.65,4.66,11.08,7.39,16.93.94,33.06-7.06,46.18-9.24,3.43-.57,13.35-4,14.78,1.85-2.79,5.25-9.85,5.88-14.78,7.39-9.27,2.84-19.24,5.08-27.71,7.39-2.68.73-4.62,2.86-7.38,3.69-6.65,2-14.34,1.27-20.32,3.69-6.43,2.61-12.26,8.45-18.47,11.09s-13.32,4.49-20.32,7.38c-14.17,5.87-27.37,10.44-40.64,14.78-16.94,5.54-32.7,8.08-51.72,12.93-21,5.34-43.67,14-66.49,16.63-18.65,2.14-51.43-3.88-61,9.23,5.47,12.78,20.45,16.09,33.25,18.47,21.3,4,47,4.74,72,7.39,14.57,9.59,28.41,25.44,46.18,29.55,10.4,2.41,24.07,2.66,35.09,3.7,32.94,3.11,57.46,1,81.27,3.69,6.92.78,16.54-1.44,20.32,5.54-20.55,8.36-64.56-8.44-66.49,22.17,8,8.51,19.23,7.35,33.24,9.23,14.26,1.92,27.08,7.45,36.94,5.54,9.65-1.86,14.78-10.19,20.32-14.77,10.71-8.85,20-13.88,29.56-22.17a321.1,321.1,0,0,0,40.63-42.48c2.43-3.11,4.92-6.18,7.39-9.24,32.34-40,65.1-94.18,77.58-147.76C984.62,768.18,929,776.46,891,767ZM348,1014.49c23.58,16.43,44.49,26.84,70.19,38.79,27.22,12.66,57.45,22.37,88.66,29.56,12,2.75,16.93,3.87,27.71,5.54,96.52,15,204.54-2.5,282.6-53.57-23.84-4.44-46.67-2.55-61-14.78-11-9.41-9.38-24.74-20.32-35.09-10.92,2.73-21.89,2.74-31.4,1.85-20.15-1.89-28.67-9.87-40.64-18.47-11-7.94-18.83-15.53-29.55-16.63-25-2.54-50.1-3.27-68.34-9.23-19.38-6.35-26.4-14-36.94-25.86-51.31,2.39-96.55-4.25-138.53-11.08-15.32-2.5-31.26-2.4-44.33-7.39-12.85-4.91-23.77-17-36.95-20.32-24.68-6.27-49,.13-72,0-1.36-9.73-10.24-11.93-11.09-22.17,6.69-1.93,21.43,4.19,22.17-3.69-21.39-8.16-38.75-20.36-53.57-35.1C225,895.32,282.81,969.07,348,1014.49ZM584.39,890.74c-76.86,4.26-166.19-3-223.5-14.78-9.65-2-20.93-6.34-29.55-1.85,23.8,10.4,52.72,17.89,81.27,22.17,50.79,7.62,104,7.87,153.31,3.69,32.44-2.75,69.65-.31,83.12-16.62C633.17,887.23,606.19,889.52,584.39,890.74Z"/><path class="cls-1" d="M475.41,423.43c1.67,7,3.95,21,3.7,24-45.11,4.26-93.69,1.38-123.76,16.62-11.31,2.7-5.82-11.42-14.78-11.08-10.46,15.6,12.83,23.86,27.71,27.7,26.18,6.77,58.44,5.29,92.35,7.39,66.1,4.11,142.28,7.23,192.1-3.69,17.07-3.74,34.74-9,42.48-22.17-4-9.25-17.23-10.37-27.7-12.93-23.75-5.8-55.91-11.76-83.12-7.38,33.47,4.08,69.71,5.4,96.05,16.62-31-4.29-86.16-4.22-110.83-11.08.15-10.94,7.19-15,12.93-20.32,24.1-1.05,52.75.27,75.73,5.54,23.58,5.41,70.83,19.1,70.19,40.64,0,1.22-3.43,10.7-3.69,11.08-6.17,9.08-24.24,11.55-33.25,18.47.38,8.24,13.47,3.77,14.78,11.08,1.58,19.65-8.55,41.25-11.09,66.5,11.51-10,11.67-31.44,16.63-48,9-11.11,22.12-12,38.79-7.39,30.53,24.77,39.7,63.4,22.16,99.75-6.5,13.48-13.14,21.2-22.16,33.25-20.23,27-53,53.34-83.12,72-11.26,19.53-20.12,41.46-46.18,46.18-3,17.34-7.72,32.91-14.78,46.18-37.38,18.06-119,20.79-162.54,5.54-15.24-5.34-24.37-11-31.4-24-.93-67.56-26.1-113-44.33-168.09q-21.82-65.93-46.18-129.3c-9.22-11.7-20.18-21.68-25.86-36.94,1.45-8.4,8.58-11.13,11.09-18.47,46.16-19.12,107-23.53,168.08-27.71ZM312.87,464.06c4.09,9.46,10.48,20.4,18.47,24,2.68,1.22,10.27,2.74,14.78,3.7,6.91,1.47,17.84,3.35,25.85,3.69,6.26.27,17.21,2.76,18.48-3.69-27.62-.56-59.93-11.16-70.19-35.1h-5.55C315.14,460.16,312.65,460.74,312.87,464.06Zm86.81,53.57C423.6,521.31,447,525.08,468,525c61.65-.17,126.13.78,166.24-12.92-94.77,4.71-228.17,12.27-304.77-22.17,4.8,24.58,39.4,23,70.19,27.71ZM359,534.25c27.52,6.35,62.63,5.1,94.21,7.39-3.84-6.15-14.67-7.93-22.17-9.24-19.52-3.4-39.62-3.08-55.41-5.54-5.47-1.3-8-5.5-16.63-3.69Zm1.85,20.32c25.18,10.21,48.61,5.53,79.43,5.54-5.56-12-21.29-6.51-31.4-7.39-17.52-1.52-33.61-6.65-48-9.23ZM662,706c9.07-7.82,24-16,31.4-22.17,2.08-1.72,7.91-2.45,9.23-3.69,1.82-1.71,1.86-5.84,3.7-7.39,24.77-20.92,54-48.23,57.26-83.12,1.68-17.8-3.14-23.29-11.09-31.4-41.3-6.82-36.47,32.49-64.64,38.79-15.11,54.47-41.07,98.08-57.26,151.46C642.91,738.94,647.91,718.15,662,706ZM366.43,574.89c18.3,11.26,56.09,3,83.12,5.54-4-9-16.83-6.6-25.86-7.39-19.43-1.71-38-4.34-57.26-5.54Zm7.39,27.7c20-.33,44.44.45,62.8,0,5.8-.14,16.14,3.2,18.47-3.69-24.41-6.85-54.9-3.22-85-11.08A47.46,47.46,0,0,0,373.82,602.59Zm7.39,22.17c18.63-.42,42,.56,59.11,0,5.16-.17,15.21,3.13,16.62-3.7-25.77-6.59-49.64-5.36-79.42-9.23C375.41,619.47,381.41,619,381.21,624.76Zm7.39,20.32c8.35,2.33,20.74,1.91,33.25,1.84,11.66-.06,27.32,3,31.4-5.54-24.22-3.85-43.66-2.72-68.35-7.39C384,639.81,390.57,638.17,388.6,645.08Zm9.23,24c9.16-.05,20.53,0,31.4,0,9.84-.05,23,3.12,27.71-3.7-2.86-5.58-12.66-5-18.47-5.54-16.41-1.47-30.24-1.66-44.33-5.54C394.44,660.18,398.33,662.44,397.83,669.09Zm9.24,22.16c18.1,3.94,44.5,1.86,60.95-1.84-5.78-10.19-22-4.54-35.09-5.55-9.95-.76-19.5-4.72-27.71-3.69-.1-1.13-.27-2.19-1.85-1.85C403.69,683.55,406.77,686,407.07,691.25ZM421.85,719c9.86,1.26,19.33-1,29.55-1.85,12.6-1.05,28,.8,35.09-7.39-21.26-4-50.33-.14-70.19-5.54C415.1,712.14,419.5,714.53,421.85,719Zm3.69,20.32c10.65,3.22,22.61,1.17,35.09,0,11-1,26.07.89,31.41-7.39-19.5-4.52-48.4.36-68.35-3.7C422.36,733.83,426.89,733.62,425.54,739.28Zm3.69,18.47c13.95,8.24,50.61,7.45,61-3.7-20.49-2.56-45.36-3.28-61-5.54Zm3.7,18.47c5.7,2.54,14.74,6.41,24,7.39,15.31,1.61,36.32.6,40.64-5.54-21.13-8.41-41.45-4-64.65-9.24Zm0,27.71c20.65,10.38,51.6,9,79.42,7.38,16-.91,35,2.57,44.33-7.38-44.18-1.29-88-.66-127.45-14.78C427.22,797.31,432.37,798.33,432.93,803.93Z"/><path class="cls-1" d="M1020.3,770.68c-23.92-8.28-38.65-9.92-68.34-11.08-30.62-1.21-63-6.73-88.66-3.7-18.06,2.13-34.14,10.56-51.72,14.78-7.44,1.78-20.1,4.54-27.7,3.69-9.06-1-14.44-8.11-22.17-11.08-12.17-4.67-24.91-3.39-35.09-11.08-5.93-1.61-5.78,2.84-7.39,5.54-6.2-11.66-26.27-9.44-36.94-16.63,1.29-4.57,5.48-4.92,9.23-7.38C712.37,720,743,691,761.71,669.09c15.86-18.58,31.82-45.6,35.09-66.5,8.67-55.35-20.37-84.51-62.8-97.89,41.35-71.24-67.43-85.68-127.45-94.2,2.53-6.71,15.24-3.24,16.63-11.09,86.28-25.78,211.66-12.46,273.37-62.8,1.57-.34,1.74.72,1.84,1.85,18.09,11.35,44.84,44.24,61,66.49,2.66,3.68,6.72,7.08,9.23,11.09,1.47,2.34.32,6.88,1.85,9.23a419.24,419.24,0,0,1,61,155.16C1041.25,637.15,1040.18,717,1020.3,770.68ZM926.1,380.94c-6.18-7.55-19-26.11-27.71-24-10.65,2.55-19.69,9-29.55,12.93-29.64,11.86-64.68,19.5-101.59,24-37.44,4.58-74.72,1.48-103.44,14.78,94.77,3.78,181.77.76,280.76,1.85C941.52,399.87,934.52,391.21,926.1,380.94Zm-175.47,62.8c5.64,21.22,7.78,29.61,0,51.72,11.43,15,32.26,12.93,53.56,12.93,64.33,0,141.67,1.75,193.95-1.85-11-32.72-27.27-60.16-44.33-86.81h-229C728.44,432.68,743.89,433.86,750.63,443.74Zm42.48,77.58c-1.85,0-2.2,1.5-3.69,1.85-1.13.1-2.19.27-1.85,1.84,12,16.36,22.28,34.36,24,61,58.47,4.14,139.33.74,206.88,1.85-1.06-26-9.78-44.41-14.78-66.5C937.9,525.64,834.25,521.51,793.11,521.32Zm18.47,83.12c-2.6.48-2.1,4-3.69,5.54.21,15-12.11,28.42-16.63,44.33,78.59.27,162.12-1.06,232.74,1.85,1.8-12.52-1.18-33.91,0-51.72Zm-38.79,70.19a201.65,201.65,0,0,1-22.16,24c-6.21,5.77-16.53,10.84-18.47,20.32,107.06-6.27,203.14,3,290-1.85-.86-15.64,3.28-26.27,1.85-42.48C937.87,679.63,863.37,672.71,772.79,674.63Zm160.7,66.49c-6.46-.42-12.17-3.85-18.47-3.69-8.5.21-17.46,2.26-24,5.54,36.07,7.64,85.24,2.19,116.36,14.78,2.67-4.11,4.64-8.91,3.7-16.63C981,739.55,954.86,742.51,933.49,741.12ZM737.7,739.28c-2.07.39-2.88,2.05-3.7,3.69,18.68,1.17,31,17.77,49.88,20.32,21.14,2.85,32.44-5.87,48-11.08,12.2-4.09,27.68-5,35.09-12.93C817.88,743.47,772.42,739.76,737.7,739.28Z"/><path class="cls-1" d="M388.6,763.29c-43.21-.11-82.67,3.53-110.83,18.47,24.68,4.36,62.91-12.77,90.51-7.39,2.77.54,11.23.78,11.08,7.39-29.19,2.21-58.66,4.14-79.42,14.78,22.16,6.91,62.9-12.95,79.42,5.54-17.26,1.82-34.31,3.85-48,9.23,14.18,8.57,50.51-3.61,64.65,9.24-11.11,4.29-30.16.63-44.33,1.85,3.53,9.39,20.54,5.31,29.55,9.23-17.39,3.2-35.76-1.63-55.41-5.54-34.13-6.8-73.49-13.77-92.36-35.09-3.76-4.69,5.3-8.38,3.7-16.63-9.07,3.87-12.54,13.32-11.09,27.71C251,825.18,297.74,826.44,333.19,839c59.59,8.88,120.77,18.73,186.55,16.62,56.86-1.82,113.79-5.58,164.39-22.16,11.36,7.46,31.74,12.47,44.33,12.93-17,10.08-34.9,16.73-61,20.32-20.48,2.81-45.24,8.82-72,11.08-10,.84-19.88-.55-29.55,0-24.44,1.39-48.5,5.49-73.88,3.69-5.19-.36-9.62-3.4-14.78-3.69-29.72-1.69-61.74-2.76-90.51-7.39C378.06,869,368.9,865,359,863c-10.27-2-21.69-1.27-31.4-3.69-12.58-3.15-31.36-9.28-48-14.78-15.84-5.22-25.07-8-36.94-12.93-6.82-2.84-9.57-4.66-16.63-7.39-23.42-9-34.75-34.44-9.23-51.72,7.71-5.22,27-11.37,38.79-14.77,13.1-3.8,28-8.85,42.48-11.08,23-3.54,59.05-8.42,75.73-3.7C382.61,745.45,389.13,752.41,388.6,763.29Z"/></svg>